HIERARCHY
ROOT root
{
	OFFSET	0	13.1	24.9
	CHANNELS 6  Xposition Yposition Zposition Xrotation Yrotation Zrotation
	JOINT spine_1
	{
		OFFSET	0	9.99999	0
		CHANNELS 3  Xrotation Yrotation Zrotation
		JOINT spine_2
		{
			OFFSET	0	112	-10
			CHANNELS 3  Xrotation Yrotation Zrotation
			JOINT spine_3
			{
				OFFSET	0	206.5	19.3
				CHANNELS 3  Xrotation Yrotation Zrotation
				JOINT spine_4
				{
					OFFSET	0	110.4	14.6
					CHANNELS 3  Xrotation Yrotation Zrotation
					JOINT neck_1
					{
						OFFSET	0	71.8	-50.3
						CHANNELS 3  Xrotation Yrotation Zrotation
						JOINT neck_2
						{
							OFFSET	0	86.2	-25.8
							CHANNELS 3  Xrotation Yrotation Zrotation
							JOINT head_ee
							{
								OFFSET	0	179.8	-8.7
								CHANNELS 3  Xrotation Yrotation Zrotation
								End Site
								{
									OFFSET	1	0	0
								}
							}
						}
					}
					JOINT left_clavicle
					{
						OFFSET	-43.2	22.4	-70.8
						CHANNELS 3  Xrotation Yrotation Zrotation
						JOINT left_shoulder
						{
							OFFSET	-93.9	-5.79999	48.7
							CHANNELS 3  Xrotation Yrotation Zrotation
							JOINT left_elbow
							{
								OFFSET	-291.4	-30.8	15.2
								CHANNELS 3  Xrotation Yrotation Zrotation
								JOINT left_lowarm_twist
								{
									OFFSET	-110.7	-3.89999	13.6
									CHANNELS 3  Xrotation Yrotation Zrotation
									JOINT left_hand
									{
										OFFSET	-110.7	-3.89999	13.6
										CHANNELS 3  Xrotation Yrotation Zrotation
										JOINT left_ee
										{
											OFFSET	-80.8	-5.10001	12.1
											CHANNELS 3  Xrotation Yrotation Zrotation
											End Site
											{
												OFFSET	1	0	0
											}
										}
									}
								}
							}
						}
					}
					JOINT right_clavicle
					{
						OFFSET	43.2	22.4	-70.8
						CHANNELS 3  Xrotation Yrotation Zrotation
						JOINT right_shoulder
						{
							OFFSET	93.9	-5.79999	48.7
							CHANNELS 3  Xrotation Yrotation Zrotation
							JOINT right_elbow
							{
								OFFSET	291.4	-30.8	15.2
								CHANNELS 3  Xrotation Yrotation Zrotation
								JOINT right_lowarm_twist
								{
									OFFSET	110.7	-3.89999	13.6
									CHANNELS 3  Xrotation Yrotation Zrotation
									JOINT right_hand
									{
										OFFSET	110.7	-3.89999	13.6
										CHANNELS 3  Xrotation Yrotation Zrotation
										JOINT right_ee
										{
											OFFSET	80.8	-5.10001	12.1
											CHANNELS 3  Xrotation Yrotation Zrotation
											End Site
											{
												OFFSET	1	0	0
											}
										}
									}
								}
							}
						}
					}
				}
			}
		}
	}
	JOINT left_hip
	{
		OFFSET	-82.8	-127.5	0.300001
		CHANNELS 3  Xrotation Yrotation Zrotation
		JOINT left_knee
		{
			OFFSET	-28.2	-396.7	2.2
			CHANNELS 3  Xrotation Yrotation Zrotation
			JOINT left_ankle
			{
				OFFSET	-11.7	-411.3	35.4
				CHANNELS 3  Xrotation Yrotation Zrotation
				JOINT left_toes
				{
					OFFSET	0	-60	-88.6
					CHANNELS 3  Xrotation Yrotation Zrotation
					JOINT left_foot_ee
					{
						OFFSET	-22.5	-16.5	-42.2
						CHANNELS 3  Xrotation Yrotation Zrotation
						End Site
						{
							OFFSET	1	0	0
						}
					}
				}
			}
		}
	}
	JOINT right_hip
	{
		OFFSET	82.8	-127.5	0.300001
		CHANNELS 3  Xrotation Yrotation Zrotation
		JOINT right_knee
		{
			OFFSET	28.2	-396.7	2.2
			CHANNELS 3  Xrotation Yrotation Zrotation
			JOINT right_ankle
			{
				OFFSET	11.7	-411.3	35.4
				CHANNELS 3  Xrotation Yrotation Zrotation
				JOINT right_toes
				{
					OFFSET	0	-60	-88.6
					CHANNELS 3  Xrotation Yrotation Zrotation
					JOINT right_foot_ee
					{
						OFFSET	22.5	-16.5	-42.2
						CHANNELS 3  Xrotation Yrotation Zrotation
						End Site
						{
							OFFSET	1	0	0
						}
					}
				}
			}
		}
	}
}
MOTION
Frames: 9
Frame Time: 0.02
3543.92 734.431 -565.316 158.746 88.6867 -153.165 -1.03218 -0.627444 -2.78488 -1.02798 -0.449036 -2.81912 -1.00209 0.203314 -2.84739 -1.01332 -0.248743 -2.84378 -1.04223 1.15324 5.24386 -0.956752 -2.15807 5.71434 -0.0 0.0 -0.0 11.5815 -11.7957 23.3226 -41.284 -50.2995 48.8781 0.664742 -18.2265 0.106633 16.6744 0.283186 -2.10369 0.170523 1.20513 1.64221 -0.0 0.0 -0.0 8.69816 -9.23749 -16.5107 -24.9506 31.0577 -47.3861 0.874861 23.4307 -0.181423 -3.53536 0.137903 -0.430268 -0.773247 4.57176 7.16349 0.0 0.0 0.0 6.6678 -9.6908 -6.38313 -22.0685 0.265332 3.35529 -14.216 -9.11622 2.23715 39.6943 -0.0 -0.0 -0.0 0.0 -0.0 7.46517 -36.5183 9.91523 -8.57412 -0.256926 -1.28956 -5.11884 25.9564 -0.919409 5.68827 -0.0 -0.0 0.0 0.0 0.0 
3541.68 733.088 -555.645 143.204 88.6399 -137.675 -1.12233 -0.553092 -2.75959 -1.11818 -0.376441 -2.78916 -1.09612 0.271882 -2.80127 -1.10703 -0.173759 -2.80906 -3.03302 2.18509 5.96292 -2.93223 -0.681695 6.52038 -0.0 0.0 -0.0 11.3012 -11.7758 22.6927 -40.2223 -51.5489 47.9767 0.700934 -19.1482 0.118229 17.2379 0.281989 -2.17564 0.0625615 2.99276 1.67005 -0.0 0.0 -0.0 7.90202 -10.2996 -14.9837 -23.994 32.8816 -48.3993 0.930679 24.7508 -0.204209 -3.60234 0.140771 -0.438335 -1.13011 1.56467 8.26412 0.0 0.0 0.0 6.39096 -10.0537 -5.53297 -22.4579 0.258351 3.41464 -14.0893 -8.14436 2.20522 39.9881 -0.0 -0.0 -0.0 0.0 -0.0 8.07839 -36.0799 9.67938 -9.5656 -0.274108 -1.44073 -3.5542 14.8071 -0.570967 5.48939 -0.0 -0.0 0.0 0.0 0.0 
3538.72 732.286 -551.883 144.692 88.7027 -139.183 -1.04309 -0.543495 -2.74861 -1.03897 -0.367561 -2.7776 -1.01755 0.274062 -2.78837 -1.02836 -0.16957 -2.79666 -3.63903 2.99896 5.11192 -3.56885 1.52525 5.74149 -0.0 0.0 -0.0 11.3886 -13.0513 22.8651 -44.7863 -53.463 43.7823 0.732995 -19.9562 0.128959 19.3522 0.27119 -2.44547 0.59686 3.5571 5.44139 -0.0 0.0 -0.0 7.76038 -11.8699 -14.628 -25.9011 33.5114 -47.5721 0.969474 25.6521 -0.220728 -4.13117 0.16375 -0.501918 -1.97188 0.570688 13.5562 0.0 0.0 0.0 5.79146 -13.8666 -4.60965 -22.8361 0.251184 3.47223 -12.8103 -7.42019 1.99492 40.1185 -0.0 -0.0 -0.0 0.0 -0.0 8.05112 -35.1203 9.85555 -10.0357 -0.28134 -1.5125 -2.80629 14.8475 -0.450184 8.00101 -0.0 -0.0 0.0 0.0 0.0 
3534.5 734.646 -546.289 140.005 88.7311 -134.36 -1.01144 -0.502825 -2.81678 -1.00708 -0.322641 -2.84304 -0.987425 0.331268 -2.84205 -0.998676 -0.121549 -2.8587 -5.10779 3.41284 5.32033 -5.03178 2.2818 6.00827 -0.0 0.0 -0.0 11.6313 -13.9161 23.3918 -44.4116 -51.4332 42.6893 0.797005 -21.5446 0.15164 18.8052 0.274939 -2.3757 0.792699 0.436224 5.48005 -0.0 0.0 -0.0 7.58111 -11.9952 -14.3045 -25.2633 34.6198 -48.6726 0.854305 22.9378 -0.17333 -4.6191 0.185472 -0.560397 -1.79124 -0.326562 11.9009 0.0 0.0 0.0 5.38198 -11.1862 -4.68561 -22.3471 0.260378 3.39776 -11.1892 -9.11897 1.75496 37.8386 -0.0 -0.0 -0.0 0.0 -0.0 7.79855 -31.2403 8.72074 -10.5208 -0.288184 -1.58662 -2.50454 6.07771 -0.380864 4.20597 -0.0 -0.0 0.0 0.0 0.0 
3533.66 737.816 -541.739 137.982 88.4934 -132.277 -1.11581 -0.56904 -2.84627 -1.11138 -0.386848 -2.87668 -1.08801 0.281379 -2.88889 -1.09961 -0.178202 -2.89708 -5.66626 3.17457 4.77591 -5.60507 2.30939 5.41209 -0.0 0.0 -0.0 11.5872 -13.649 23.2993 -43.2046 -51.403 43.0182 0.796194 -21.5247 0.151342 18.7523 0.275266 -2.36895 0.396378 1.81005 3.39624 -0.0 0.0 -0.0 7.72945 -13.8474 -14.432 -26.849 34.9009 -47.1498 0.88001 23.5536 -0.183476 -4.79409 0.193384 -0.581324 -1.61052 0.185177 10.9048 0.0 0.0 0.0 5.14396 -11.4599 -4.48343 -22.2436 0.262242 3.38199 -11.7476 -10.5352 1.85918 37.4916 -0.0 -0.0 -0.0 0.0 -0.0 8.87684 -33.951 9.63789 -10.2031 -0.283773 -1.53807 -4.11749 3.279 -0.621164 2.29968 -0.0 -0.0 0.0 0.0 0.0 
3530.46 737.843 -538.622 128.885 88.492 -123.164 -1.08447 -0.484801 -2.85406 -1.07999 -0.302285 -2.8791 -1.06101 0.363004 -2.87208 -1.0725 -0.0949466 -2.89335 -6.38692 3.36347 4.27555 -6.33856 3.09887 4.94576 -0.0 0.0 -0.0 12.2229 -13.1232 24.7576 -46.3267 -50.406 39.7494 0.811294 -21.8946 0.156928 19.0823 0.273123 -2.41105 0.695452 1.36715 5.20913 -0.0 0.0 -0.0 7.58197 -14.4541 -14.1349 -27.6988 34.8992 -47.0413 0.873268 23.3926 -0.18079 -4.9053 0.198446 -0.594612 -1.64327 -0.618387 10.7591 0.0 0.0 0.0 5.08133 -11.824 -4.10901 -22.3667 0.260023 3.40074 -12.1573 -10.4803 1.92432 35.5652 -0.0 -0.0 -0.0 0.0 -0.0 9.40001 -33.9591 10.0094 -10.1926 -0.283623 -1.53647 -4.07267 -0.0539949 -0.607964 1.19749 -0.0 -0.0 0.0 0.0 0.0 
3526.83 735.03 -533.052 136.463 88.7563 -130.767 -1.08329 -0.46226 -2.8432 -1.07884 -0.280479 -2.86683 -1.06108 0.38146 -2.85516 -1.07245 -0.0740523 -2.87956 -6.74423 3.67977 4.12087 -6.70004 3.83246 4.85674 -0.0 0.0 -0.0 12.4372 -13.5797 25.2395 -46.6514 -50.8736 39.3523 0.841541 -22.6298 0.168387 19.3667 0.271082 -2.44732 0.761422 1.14847 5.56112 -0.0 0.0 -0.0 7.3173 -14.8361 -13.6609 -28.6583 34.8323 -47.0119 0.857568 23.0163 -0.174604 -4.99925 0.202742 -0.60583 -1.67237 -0.540271 10.9927 0.0 0.0 0.0 5.03987 -12.4244 -3.40086 -22.3532 0.260267 3.39869 -11.5861 -10.2689 1.83031 35.1353 -0.0 -0.0 -0.0 0.0 -0.0 9.85686 -33.7709 10.1972 -10.1855 -0.283521 -1.53538 -2.18265 -2.59137 -0.322708 1.55906 -0.0 -0.0 0.0 0.0 0.0 
3525.06 738.717 -526.562 149.907 88.7598 -144.123 -1.12144 -0.545569 -2.88768 -1.11688 -0.360793 -2.91651 -1.09449 0.316226 -2.92167 -1.10637 -0.148961 -2.93494 -7.15757 3.79922 3.84101 -7.12009 4.29596 4.60915 -0.0 0.0 -0.0 12.489 -15.2329 25.3121 -45.6432 -51.6415 39.1186 0.836878 -22.517 0.166597 19.6399 0.268951 -2.48215 0.795886 1.01844 5.73883 -0.0 0.0 -0.0 7.21055 -15.2364 -13.4546 -29.502 34.71 -47.1081 0.839913 22.5905 -0.167761 -5.20425 0.21218 -0.630284 -1.70471 -0.559761 11.2036 0.0 0.0 0.0 5.17676 -12.7818 -2.79206 -22.2309 0.262469 3.38005 -11.1961 -10.172 1.7668 34.7459 -0.0 -0.0 -0.0 0.0 -0.0 11.0145 -33.215 10.9243 -9.31635 -0.270035 -1.4027 -0.873138 -4.13339 -0.128401 1.62173 -0.0 -0.0 0.0 0.0 0.0 
3519.59 737.687 -520.026 158.984 88.8133 -153.445 -1.1542 -0.560162 -2.76686 -1.15002 -0.383035 -2.79686 -1.12753 0.268762 -2.81013 -1.1385 -0.178238 -2.81732 -6.42378 3.82164 3.02803 -6.40036 4.86495 3.78167 -0.0 0.0 -0.0 12.1807 -15.6824 24.5867 -42.124 -53.3001 39.1881 0.845577 -22.7274 0.169943 20.5096 0.261064 -2.59295 0.746135 1.07994 5.43092 -0.0 0.0 -0.0 7.1306 -14.9161 -13.3427 -30.2959 35.6539 -47.0999 0.757719 20.5737 -0.137523 -5.15016 0.209682 -0.623835 -1.60941 1.15475 11.3399 0.0 0.0 0.0 5.35579 -9.85271 -2.44726 -22.3092 0.261064 3.39198 -9.66209 -10.6988 1.52637 35.992 -0.0 -0.0 -0.0 0.0 -0.0 11.5766 -32.0276 11.5924 -8.15301 -0.248837 -1.22544 1.70631 -0.969602 0.250728 3.29055 -0.0 -0.0 0.0 0.0 0.0 
